<svg width="37" height="28" viewBox="0 0 37 28" fill="none" xmlns="http://www.w3.org/2000/svg">
<g clip-path="url(#clip0_523_3650)">
<path d="M6.52887 27.9405V26.0823C6.52887 25.3714 6.09631 24.906 5.35374 24.906C4.98245 24.906 4.57873 25.0286 4.30117 25.4328C4.08488 25.0936 3.77488 24.906 3.30987 24.906C2.99987 24.906 2.68986 24.9998 2.44474 25.339V24.9673H1.7959V27.9405H2.44474V26.2987C2.44474 25.7719 2.72231 25.523 3.15487 25.523C3.58744 25.523 3.80372 25.8008 3.80372 26.2987V27.9405H4.45256V26.2987C4.45256 25.7719 4.76257 25.523 5.16269 25.523C5.59525 25.523 5.81154 25.8008 5.81154 26.2987V27.9405H6.52887ZM16.1534 24.9673H15.1009V24.0689H14.452V24.9673H13.8644V25.5554H14.452V26.9194C14.452 27.6013 14.7296 28.0018 15.4721 28.0018C15.7497 28.0018 16.0597 27.908 16.276 27.7853L16.0885 27.2261C15.9011 27.3487 15.6848 27.3812 15.5298 27.3812C15.2198 27.3812 15.0972 27.1936 15.0972 26.8869V25.5554H16.1498V24.9673H16.1534ZM21.6614 24.9024C21.2901 24.9024 21.0414 25.09 20.8864 25.3353V24.9637H20.2376V27.9369H20.8864V26.2627C20.8864 25.7683 21.1027 25.4869 21.5064 25.4869C21.629 25.4869 21.784 25.5194 21.9101 25.5482L22.0976 24.9276C21.9678 24.9024 21.784 24.9024 21.6614 24.9024ZM13.3382 25.2127C13.0282 24.9962 12.5956 24.9024 12.1306 24.9024C11.388 24.9024 10.8942 25.274 10.8942 25.8622C10.8942 26.3565 11.2655 26.6379 11.9143 26.7281L12.2243 26.7606C12.5631 26.8219 12.7506 26.9158 12.7506 27.0709C12.7506 27.2874 12.5019 27.4426 12.0693 27.4426C11.6367 27.4426 11.2943 27.2874 11.078 27.1323L10.768 27.6266C11.1068 27.8756 11.5719 27.9982 12.0369 27.9982C12.902 27.9982 13.3994 27.5941 13.3994 27.0384C13.3994 26.5116 12.9957 26.2338 12.3793 26.14L12.0693 26.1075C11.7917 26.075 11.5755 26.0137 11.5755 25.8297C11.5755 25.6132 11.7917 25.4905 12.1342 25.4905C12.5055 25.4905 12.8768 25.6457 13.0642 25.7395L13.3382 25.2127ZM30.6011 24.9024C30.2298 24.9024 29.9811 25.09 29.8261 25.3353V24.9637H29.1772V27.9369H29.8261V26.2627C29.8261 25.7683 30.0423 25.4869 30.4461 25.4869C30.5686 25.4869 30.7236 25.5194 30.8498 25.5482L31.0372 24.9348C30.9111 24.9024 30.7272 24.9024 30.6011 24.9024ZM22.3103 26.4539C22.3103 27.3524 22.9303 28.0018 23.8891 28.0018C24.3217 28.0018 24.6317 27.908 24.9417 27.6627L24.6317 27.1359C24.383 27.3235 24.1378 27.4137 23.8567 27.4137C23.3304 27.4137 22.9591 27.042 22.9591 26.4539C22.9591 25.8946 23.3304 25.523 23.8567 25.4941C24.1342 25.4941 24.383 25.5879 24.6317 25.7719L24.9417 25.2451C24.6317 24.9962 24.3217 24.906 23.8891 24.906C22.9303 24.9024 22.3103 25.5554 22.3103 26.4539ZM28.3121 26.4539V24.9673H27.6632V25.339C27.447 25.0611 27.137 24.906 26.7332 24.906C25.8969 24.906 25.2481 25.5554 25.2481 26.4539C25.2481 27.3524 25.8969 28.0018 26.7332 28.0018C27.1658 28.0018 27.4758 27.8467 27.6632 27.5689V27.9405H28.3121V26.4539ZM25.9294 26.4539C25.9294 25.9271 26.2682 25.4941 26.8269 25.4941C27.3532 25.4941 27.7245 25.8982 27.7245 26.4539C27.7245 26.9807 27.3532 27.4137 26.8269 27.4137C26.2718 27.3812 25.9294 26.9771 25.9294 26.4539ZM18.1649 24.9024C17.2997 24.9024 16.6797 25.523 16.6797 26.4503C16.6797 27.3812 17.2997 27.9982 18.1973 27.9982C18.6299 27.9982 19.0624 27.8756 19.4049 27.5941L19.0949 27.1286C18.8461 27.3163 18.5361 27.439 18.2297 27.439C17.826 27.439 17.4259 27.2513 17.3322 26.7281H19.5274C19.5274 26.6343 19.5274 26.573 19.5274 26.4792C19.5563 25.523 18.9975 24.9024 18.1649 24.9024ZM18.1649 25.4616C18.5686 25.4616 18.8461 25.7106 18.9074 26.1725H17.361C17.4223 25.7719 17.6998 25.4616 18.1649 25.4616ZM34.2851 26.4539V23.791H33.6362V25.339C33.4199 25.0611 33.1099 24.906 32.7062 24.906C31.8699 24.906 31.2211 25.5554 31.2211 26.4539C31.2211 27.3524 31.8699 28.0018 32.7062 28.0018C33.1388 28.0018 33.4488 27.8467 33.6362 27.5689V27.9405H34.2851V26.4539ZM31.9024 26.4539C31.9024 25.9271 32.2412 25.4941 32.7999 25.4941C33.3262 25.4941 33.6975 25.8982 33.6975 26.4539C33.6975 26.9807 33.3262 27.4137 32.7999 27.4137C32.2412 27.3812 31.9024 26.9771 31.9024 26.4539ZM10.1804 26.4539V24.9673H9.53159V25.339C9.31531 25.0611 9.0053 24.906 8.60158 24.906C7.76528 24.906 7.11644 25.5554 7.11644 26.4539C7.11644 27.3524 7.76528 28.0018 8.60158 28.0018C9.03414 28.0018 9.34414 27.8467 9.53159 27.5689V27.9405H10.1804V26.4539ZM7.76889 26.4539C7.76889 25.9271 8.10773 25.4941 8.66646 25.4941C9.19275 25.4941 9.56403 25.8982 9.56403 26.4539C9.56403 26.9807 9.19275 27.4137 8.66646 27.4137C8.10773 27.3812 7.76889 26.9771 7.76889 26.4539Z" fill="black"/>
<path d="M22.8672 2.38477H13.1201V19.9136H22.8672V2.38477Z" fill="#FF5A00"/>
<path d="M13.77 11.1495C13.77 7.58814 15.4425 4.42732 18.0091 2.38505C16.1202 0.898454 13.7375 0 11.1385 0C4.9817 0 0 4.9866 0 11.1495C0 17.3124 4.9817 22.299 11.1385 22.299C13.7375 22.299 16.1202 21.4005 18.0091 19.9139C15.4389 17.9005 13.77 14.7108 13.77 11.1495Z" fill="#EB001B"/>
<path d="M36.0179 11.1495C36.0179 17.3124 31.0362 22.299 24.8794 22.299C22.2804 22.299 19.8977 21.4005 18.0088 19.9139C20.6078 17.868 22.2479 14.7108 22.2479 11.1495C22.2479 7.58814 20.5753 4.42732 18.0088 2.38505C19.894 0.898454 22.2768 0 24.8757 0C31.0362 0 36.0179 5.01907 36.0179 11.1495Z" fill="#F79E1B"/>
</g>
<defs>
<clipPath id="clip0_523_3650">
<rect width="36.0182" height="28" fill="white"/>
</clipPath>
</defs>
</svg>
