<svg width="68" height="20" viewBox="0 0 68 20" fill="none" xmlns="http://www.w3.org/2000/svg">
<g clip-path="url(#clip0_523_3629)">
<path d="M19.5844 12.4996C19.5844 12.4996 19.039 13.652 17.1129 13.652C16.6515 13.6714 16.197 13.5424 15.809 13.2861C15.4629 13.0157 15.2794 12.5845 15.3144 12.1444C15.2689 11.5488 15.5975 10.992 16.1324 10.7357C16.9102 10.4353 17.7421 10.2904 18.5793 10.3204C19.0652 10.2444 19.5214 10.5855 19.5948 11.0822C19.6053 11.1281 19.6053 11.1723 19.6053 11.2218L19.5844 12.4996ZM22.4578 6.07155C22.3529 5.82058 22.2096 5.58551 22.0313 5.37519C21.8531 5.18431 21.6503 5.01464 21.4266 4.87855C21.1889 4.71241 20.9319 4.57279 20.668 4.45791C20.3954 4.35186 20.114 4.26703 19.8308 4.20163C19.504 4.12563 19.1771 4.08145 18.8398 4.05671C18.4885 4.02136 18.0865 4.00192 17.646 4.00192C14.6974 4.00192 13.0229 4.94394 12.6122 6.8227C12.5475 7.08781 12.7066 7.35823 12.974 7.42892C12.9985 7.43422 13.0229 7.43953 13.0492 7.43953H14.8617C15.3563 7.43953 15.3563 7.2893 15.5451 6.85805C15.629 6.62298 15.7723 6.41796 15.9716 6.26773C16.433 5.96727 16.9818 5.82235 17.5324 5.86123C18.048 5.81174 18.5636 5.93723 18.9883 6.22708C19.3204 6.53815 19.5127 6.96409 19.5284 7.42008C19.5284 8.03691 19.3397 8.44695 18.5828 8.44695C16.7738 8.38156 14.8372 8.58657 13.7465 9.22284C12.6524 9.89976 11.997 11.1122 12.0372 12.4095C12.0214 12.9061 12.121 13.401 12.329 13.8517C12.5178 14.2423 12.7992 14.5834 13.1418 14.8485C13.5036 15.149 13.9196 15.3699 14.3705 15.5007C14.8757 15.6368 15.3965 15.7057 15.9209 15.7004C16.6253 15.711 17.3279 15.6103 18.0026 15.3999C18.5968 15.1543 19.1614 14.8344 19.677 14.4438V14.7937C19.677 15.1401 19.7819 15.4494 20.1716 15.4494H22.2725C22.699 15.4494 22.7969 15.1437 22.7969 14.7637V8.22072C22.7969 7.81422 22.7672 7.40418 22.713 7.00298C22.6658 6.68307 22.5819 6.37201 22.4578 6.07155ZM25.3715 17.3847C25.2072 17.3794 25.0446 17.3653 24.8803 17.3441C24.6776 17.314 24.2913 17.3441 24.2913 17.694V19.1928C24.2913 19.769 24.5692 19.8096 24.7125 19.8485C25.1687 19.9492 25.6389 19.9987 26.1056 19.9987C26.6596 20.0146 27.2102 19.898 27.7101 19.6629C28.1715 19.4279 28.5823 19.1027 28.9144 18.7015C29.2902 18.2649 29.6083 17.7842 29.86 17.2628C30.1379 16.7114 30.3948 16.0998 30.643 15.43L30.9296 14.6329C30.3563 15.2091 27.8237 17.6251 25.3715 17.3847ZM33.9622 4.27763H32.0343C31.6585 4.25289 31.3159 4.50739 31.2268 4.88385L28.9878 11.121C28.9878 11.121 27.011 5.43528 26.8624 4.99873C26.7733 4.57809 26.4115 4.27763 25.9902 4.27233H24.2162C23.5817 4.27233 23.5817 4.77251 23.6656 4.96869C23.7495 5.16487 26.1772 11.8881 27.1281 14.4632C27.2766 14.7831 27.3815 15.1189 27.4409 15.4653C27.3763 15.8064 27.2469 16.1316 27.0651 16.4215C26.99 16.547 26.9061 16.6619 26.817 16.7714C28.6452 16.22 30.7706 14.2158 31.835 12.0525C32.9152 9.0567 34.3327 5.05883 34.3974 4.85381C34.469 4.53921 34.469 4.27763 33.9622 4.27763ZM3.25946 12.9644C2.04121 12.5191 0.931328 11.8121 0.00496845 10.8948V14.8185C-0.035232 15.1242 0.172762 15.4088 0.475139 15.4494C0.485627 15.4494 0.49087 15.4547 0.499609 15.4547H2.73336C3.32763 15.4547 3.25771 14.8132 3.25771 14.8132V12.9644H3.25946ZM8.24432 6.15108C8.07653 6.45154 7.81785 6.69191 7.51023 6.84744C7.17289 7.00828 6.81633 7.10372 6.44579 7.13376C6.04029 7.18325 5.63304 7.20976 5.22754 7.20976H3.80129C3.46396 7.20976 3.25072 6.92875 3.25072 6.51871V3.16593C3.2315 2.89022 3.43949 2.65515 3.71215 2.63571C3.74187 2.63571 3.77158 2.63571 3.80129 2.64101H5.22754C5.68897 2.64101 6.12418 2.65162 6.53143 2.68166C6.89848 2.69757 7.25504 2.78771 7.58713 2.94147C7.88951 3.07756 8.14644 3.30732 8.31074 3.59718C8.50475 3.98778 8.58865 4.42433 8.56418 4.85911C8.57467 5.3098 8.46455 5.75165 8.24782 6.14755V6.15108H8.24432ZM11.1423 1.97823C10.9045 1.58764 10.5917 1.24653 10.2264 0.976112C9.85933 0.719838 9.45383 0.525423 9.02736 0.389332C8.56243 0.2338 8.08527 0.133058 7.60111 0.0835704C7.03132 0.0287808 6.46152 -0.00126518 5.88648 0.00403704H0.94531C0.469896 -0.0419156 0.0539082 0.309799 0.00846414 0.785232C0.00496845 0.795836 0.00496845 0.806441 0.00496845 0.815278V0.855928V8.97717C0.69362 10.4653 1.82797 11.6884 3.25596 12.4749V10.8471C3.21052 10.3204 3.5933 9.85557 4.11765 9.80432H5.60332C7.62558 9.80432 9.17068 9.37837 10.2316 8.52118C11.2961 7.66399 11.8361 6.39676 11.8571 4.71418C11.8571 4.22814 11.8029 3.74211 11.6893 3.27198C11.574 2.81422 11.3904 2.37943 11.1423 1.97823Z" fill="#323232"/>
<path d="M67.63 8.29237C68.1246 9.0983 68.1246 10.1252 67.63 10.9329C67.1353 11.6946 64.4384 14.6003 63.5522 15.537C62.7797 16.3429 61.7397 17.1648 60.7032 17.1648H39.3044C36.4064 17.1648 36.2334 16.1626 36.2334 13.9375V4.84415C36.2334 2.55889 36.9028 1.89258 38.8849 1.89258H60.7539C61.7799 1.89258 62.6906 2.4228 63.7218 3.49032C64.6167 4.40937 67.2734 7.75154 67.63 8.29237Z" fill="#53BDBD"/>
<path d="M41.0921 5.40636V5.35157C41.0921 5.06171 41.0921 4.77539 40.5974 4.77539H38.8038C38.3825 4.77539 38.3633 5.00515 38.3633 5.36217V7.76054C39.0713 6.76373 40.0083 5.95779 41.0921 5.40636Z" fill="white"/>
<path d="M53.111 14.0845V13.959V8.16718C53.111 5.7476 52.0501 4.53516 49.9352 4.53516C49.3462 4.54046 48.7711 4.71543 48.2747 5.03533C47.7242 5.38174 47.24 5.81123 46.8275 6.31317C46.6388 5.77234 46.277 5.30575 45.7963 4.99998C45.251 4.69422 44.6322 4.5493 44.0135 4.57404C43.0976 4.57934 42.2097 4.8851 41.4861 5.45067C41.3271 5.61151 38.3557 7.94979 38.3557 10.3906V14.0933C38.3557 14.2082 38.2963 14.6589 38.7962 14.6589H40.6594C41.2397 14.6589 41.1837 14.2736 41.1837 14.1127V8.11769C41.4966 7.69175 42.1346 6.67902 43.185 6.67902C43.5276 6.64898 43.8632 6.80451 44.0572 7.09436C44.2652 7.52031 44.3596 7.99574 44.3246 8.47294V13.1477V14.1039C44.3246 14.2188 44.2652 14.6695 44.7598 14.6695H46.6073C47.1823 14.6695 47.1282 14.2842 47.1282 14.1233V13.9926V8.09648C47.4655 7.67054 48.1192 6.65781 49.1294 6.65781C49.4755 6.62777 49.8129 6.7886 50.0156 7.07315C50.2288 7.4991 50.3232 7.97453 50.2883 8.45173V13.1265V14.0827C50.2883 14.1976 50.2288 14.6483 50.7287 14.6483H52.5919C53.181 14.62 53.111 14.2382 53.111 14.0845Z" fill="white"/>
<path d="M59.077 6.50347C57.9426 6.50347 57.1788 7.30057 57.011 8.60846H61.0643C60.9594 7.45964 60.3459 6.50347 59.077 6.50347ZM63.3872 11.7332C62.7387 13.4971 61.0293 14.6336 59.1661 14.5346C56.3171 14.5346 54.4189 12.5763 54.4189 9.63532C54.4189 6.69965 56.3958 4.64062 59.0665 4.64062C61.7372 4.64062 63.5165 6.50878 63.6301 9.52574C63.6301 9.90573 63.5357 10.2468 63.0551 10.2468H57.0162C57.0564 11.8605 57.8185 12.746 59.1871 12.746C59.9247 12.7654 60.6098 12.3448 60.9367 11.6784C61.066 11.4876 61.2793 11.378 61.5065 11.3833H63.0621C63.2351 11.3727 63.3784 11.5088 63.3889 11.6837C63.3889 11.7032 63.3889 11.7297 63.3837 11.7544L63.3872 11.7332Z" fill="white"/>
</g>
<defs>
<clipPath id="clip0_523_3629">
<rect width="68" height="20" fill="white"/>
</clipPath>
</defs>
</svg>
