<svg width="23" height="32" viewBox="0 0 23 32" fill="none" xmlns="http://www.w3.org/2000/svg">
<g clip-path="url(#clip0_523_3677)">
<path fill-rule="evenodd" clip-rule="evenodd" d="M21.7525 13.3797C21.7525 17.3269 20.8507 20.2683 19.048 22.1851C17.2453 24.1019 14.4608 25.0597 10.7061 25.0597C7.1984 25.0597 4.53653 24.1013 2.72213 22.1851C0.9072 20.2688 -0.000533098 17.3787 2.3488e-07 13.5147V0.550933C0.0010669 0.246933 0.246934 0.00106667 0.5504 0H6.91093C7.21493 0.00106667 7.4608 0.246933 7.46187 0.550933V13.7979C7.46187 15.3755 7.7536 16.5899 8.34773 17.4464C9.41707 18.864 11.4331 19.1461 12.8507 18.0768C13.0635 17.9163 13.2555 17.7301 13.4219 17.5221C14.0027 16.7184 14.2917 15.5339 14.2901 13.9685V11.488H21.7525V13.3792V13.3797Z" fill="#203E7A"/>
<path fill-rule="evenodd" clip-rule="evenodd" d="M21.1768 10.0395H14.292V0.576533C14.2931 0.258133 14.5507 0.000533333 14.8685 0H15.8989C15.9011 3.23093 18.5208 5.84907 21.7517 5.84907H21.7533V10.0395H21.1763H21.1768Z" fill="#203E7A"/>
<path fill-rule="evenodd" clip-rule="evenodd" d="M17.3648 0H21.176C21.4944 0.00106667 21.752 0.258667 21.7525 0.576533V4.39307C19.3291 4.39307 17.3643 2.42827 17.3643 0.0048V0L17.3648 0Z" fill="#F4821F"/>
<path fill-rule="evenodd" clip-rule="evenodd" d="M1.25013 31.3563C2.09227 31.3563 2.49867 30.8875 2.49867 30.199V28.5398H1.896V30.1824C1.896 30.5408 1.60533 30.8315 1.24693 30.8315C0.888533 30.8315 0.597867 30.5408 0.597867 30.1824V28.5398H0V30.2043C0 30.8843 0.4064 31.3574 1.24853 31.3574L1.2496 31.3563H1.25013ZM6.136 31.3067V30.7883H4.80053L6.1072 29.0118V28.5387H4.0288V29.0576H5.33547L4.0288 30.8288V31.3046L6.136 31.3067V31.3067ZM8.95147 31.3563C9.4352 31.3675 9.88373 31.104 10.1088 30.6758L9.60107 30.431C9.4752 30.6752 9.22453 30.8299 8.94987 30.8331C8.448 30.808 8.06133 30.3814 8.0864 29.8795C8.10933 29.4123 8.48267 29.039 8.94987 29.016C9.224 29.0208 9.47413 29.175 9.60107 29.4182L10.1088 29.1691C9.88373 28.7414 9.43467 28.479 8.95147 28.4928C8.16107 28.4694 7.50133 29.0907 7.47733 29.8811C7.45387 30.6715 8.0752 31.3312 8.8656 31.3552C8.89387 31.3563 8.92267 31.3563 8.95093 31.3552L8.95147 31.3563ZM14.0981 31.3067L13.032 28.5398H12.2939L11.2235 31.3067H11.8955L12.0699 30.8379H13.2565L13.4267 31.3067H14.0987H14.0981ZM13.0944 30.3195H12.2315L12.6629 29.1286L13.0944 30.3195ZM18.0757 32.0011L17.0603 30.2539C17.4347 30.1638 17.6901 29.8171 17.6661 29.4326C17.6843 28.9568 17.3136 28.5568 16.8379 28.5387C16.8043 28.5376 16.7707 28.5382 16.7371 28.5408H15.4421V31.3078H16.0315V30.3243H16.4629L17.3995 32.0006H18.0757V32.0011ZM16.6496 29.8064H16.0315V29.0598H16.6475C16.8539 29.0379 17.0384 29.1878 17.0603 29.3936C17.0821 29.5995 16.9323 29.7846 16.7264 29.8064C16.7003 29.8091 16.6741 29.8091 16.648 29.8064H16.6501H16.6496ZM20.2864 31.3083C21.1536 31.3083 21.7552 30.7606 21.7552 29.927C21.7552 29.0934 21.1525 28.5414 20.2864 28.5414H19.1952V31.3083H20.2864ZM20.2864 30.7899H19.7845V29.0603H20.2864C20.7323 29.0272 21.1205 29.3622 21.1536 29.808C21.1563 29.8475 21.1563 29.8875 21.1536 29.927C21.1728 30.384 20.8181 30.7702 20.3611 30.7894C20.336 30.7904 20.3104 30.7904 20.2848 30.7894H20.2864V30.7899Z" fill="#233C7E"/>
<path fill-rule="evenodd" clip-rule="evenodd" d="M22.4718 28.4848V28.4912C22.4718 28.776 22.2414 29.0064 21.9571 29.007C21.6723 29.007 21.4419 28.7766 21.4414 28.4923C21.4414 28.2075 21.6718 27.9771 21.9561 27.9766H22.4713V28.4848H22.4718Z" fill="#233C7E"/>
</g>
<defs>
<clipPath id="clip0_523_3677">
<rect width="22.4704" height="32" fill="white"/>
</clipPath>
</defs>
</svg>
