<svg width="70" height="20" viewBox="0 0 70 20" fill="none" xmlns="http://www.w3.org/2000/svg">
<g clip-path="url(#clip0_523_3620)">
<path fill-rule="evenodd" clip-rule="evenodd" d="M9.90819 0C7.94818 0 6.03313 0.586362 4.40339 1.68492C2.77365 2.78347 1.50358 4.34536 0.753981 6.17251C0.00438758 8.00052 -0.191873 10.0109 0.190273 11.9506C0.572419 13.8903 1.51654 15.6721 2.90161 17.0708C4.28753 18.4695 6.05301 19.4215 7.97498 19.8072C9.89695 20.1928 11.889 19.9948 13.7003 19.2383C15.5107 18.4817 17.0583 17.1999 18.1468 15.5552C19.2353 13.9104 19.8163 11.9777 19.8163 9.99956C19.8163 7.34697 18.7728 4.80346 16.9139 2.92832C15.0568 1.05318 12.5365 0 9.90819 0ZM8.76953 3.47367C9.14476 3.44051 9.52345 3.42393 9.90819 3.42393C10.2929 3.42393 10.6716 3.42393 11.0468 3.47367V8.81462H8.76348L8.7704 3.47367H8.76953ZM16.2897 10.4411C16.2897 12.1496 15.617 13.7874 14.4204 14.995C13.2239 16.2026 11.6002 16.8815 9.90819 16.8815C8.2162 16.8815 6.59251 16.2026 5.39593 14.995C4.19935 13.7874 3.5267 12.1487 3.5267 10.4411V6.58523C4.35584 6.30688 5.20226 6.08699 6.06166 5.92644V10.4175C6.06166 13.6477 7.4156 15.337 9.90819 15.337C12.4008 15.337 13.7582 13.6477 13.7582 10.4175V5.92644C14.6167 6.08612 15.4623 6.30601 16.2897 6.58523V10.4411Z" fill="#7000FF"/>
<path d="M35.4089 5.93164H43.0466V7.88443L38.4203 12.0797V12.1129H43.2066V14.0657H35.1807V12.1129L39.8071 7.91759V7.88443H35.4089V5.93164Z" fill="#7000FF"/>
<path d="M31.18 10.3907V5.92578H33.4996V10.7528C33.4996 13.8277 31.0624 14.2265 29.1344 14.2265C27.2063 14.2265 24.7656 13.9726 24.7656 10.7528V5.92578H27.0784V10.3907C27.0784 11.8069 28.0052 12.1454 29.1335 12.1454C30.2618 12.1454 31.1791 11.826 31.1791 10.3907H31.18Z" fill="#7000FF"/>
<path d="M51.4353 5.92578V10.3907C51.4353 11.826 50.5188 12.1454 49.3897 12.1454C48.2605 12.1454 47.3406 11.8164 47.3406 10.3907V5.92578H45.0244V10.7528C45.0244 13.9734 47.4651 14.2265 49.3932 14.2265C51.3212 14.2265 53.755 13.8277 53.755 10.7528V5.92578H51.4353Z" fill="#7000FF"/>
<path d="M62.4017 6.64811C63.2066 6.06349 64.1767 5.75635 65.1683 5.77206C68.0751 5.77206 69.1653 7.64545 69.1653 9.34433V14.0693H66.862V9.5712C66.862 8.83999 66.5093 7.85225 65.2306 7.85225C64.1706 7.85225 63.6155 8.60963 63.6155 9.30419V14.0684H61.276V9.30419C61.276 8.60963 60.7054 7.85225 59.6445 7.85225C58.3623 7.85225 58.013 8.8269 58.013 9.5712V14.0693H55.6934V9.34433C55.6934 7.64545 56.6816 5.77206 59.5892 5.77206C60.5947 5.75984 61.5777 6.06611 62.4017 6.64811Z" fill="#7000FF"/>
</g>
<defs>
<clipPath id="clip0_523_3620">
<rect width="69.1667" height="20" fill="white"/>
</clipPath>
</defs>
</svg>
