<svg width="62" height="21" viewBox="0 0 62 21" fill="none" xmlns="http://www.w3.org/2000/svg">
<g clip-path="url(#clip0_523_3640)">
<path d="M26.8662 19.7775H21.8438L24.9851 0.353516H30.0073L26.8662 19.7775Z" fill="#00579F"/>
<path d="M45.0728 0.826957C44.0821 0.43394 42.5109 0 40.568 0C35.6082 0 32.1156 2.64483 32.0941 6.42615C32.0529 9.21599 34.5948 10.7655 36.4959 11.6958C38.439 12.6463 39.0995 13.2667 39.0995 14.114C39.0797 15.4153 37.5294 16.0151 36.0834 16.0151C34.0782 16.0151 33.0038 15.7059 31.371 14.9819L30.7097 14.6715L30.0068 19.0318C31.1848 19.5685 33.355 20.0447 35.6082 20.0656C40.8781 20.0656 44.309 17.4617 44.3496 13.4321C44.3697 11.2209 43.0275 9.52661 40.1338 8.14213C38.3772 7.25338 37.3014 6.6541 37.3014 5.74475C37.322 4.91807 38.2113 4.07134 40.1942 4.07134C41.827 4.02987 43.0267 4.42234 43.9355 4.81508L44.3897 5.02134L45.0728 0.826957V0.826957Z" fill="#00579F"/>
<path d="M51.749 12.8963C52.1627 11.7804 53.7542 7.4616 53.7542 7.4616C53.7334 7.50308 54.167 6.32512 54.415 5.60198L54.766 7.27567C54.766 7.27567 55.7171 11.9251 55.9237 12.8963C55.1387 12.8963 52.7411 12.8963 51.749 12.8963ZM57.9486 0.353516H54.0638C52.8658 0.353516 51.9556 0.704512 51.4387 1.96513L43.9785 19.7772H49.2484C49.2484 19.7772 50.116 17.3799 50.3025 16.8635C50.8806 16.8635 56.0071 16.8635 56.7509 16.8635C56.8951 17.5455 57.3502 19.7772 57.3502 19.7772H62.0004L57.9486 0.353516V0.353516Z" fill="#00579F"/>
<path d="M17.65 0.353516L12.7313 13.5988L12.1939 10.9125C11.2845 7.81288 8.43259 4.44518 5.25 2.77067L9.75528 19.7569H15.0664L22.9608 0.353516H17.65V0.353516Z" fill="#00579F"/>
<path d="M8.16327 0.353516H0.0826678L0 0.745983C6.30338 2.35787 10.478 6.24328 12.1931 10.9133L10.4365 1.98628C10.1473 0.745709 9.25856 0.394438 8.16327 0.353516Z" fill="#FAA61A"/>
</g>
<defs>
<clipPath id="clip0_523_3640">
<rect width="62" height="20.0656" fill="white"/>
</clipPath>
</defs>
</svg>
